<?xml version="1.0" encoding="utf-8"?>
<!-- Generator: Adobe Illustrator 23.0.3, SVG Export Plug-In . SVG Version: 6.00 Build 0)  -->
<svg version="1.1" id="Layer_1" xmlns="http://www.w3.org/2000/svg" xmlns:xlink="http://www.w3.org/1999/xlink" x="0px" y="0px"
	 viewBox="0 0 512 375" style="enable-background:new 0 0 512 375;" xml:space="preserve">
<g>
	<path d="M511.4,0H0.6L0,99.3h10.1c0.8-22.2,3.7-39.4,9-51.6c5.3-12.2,12.5-21.2,21.6-26.8c9.2-5.6,20-8.9,32.6-9.9
		c12.6-0.9,26.3-1.4,41.3-1.4h52.8v167.5c0,0-42.5-0.3-52.3-0.8c-9.7-0.6-17.9-3-24.4-7.3c-6.5-4.3-11.4-11.1-14.6-20.2
		c-3.2-9.2-4.8-22.6-4.8-40.2h-9v146.7h9c0.4-14.6,2.1-26.3,5.1-35.1c3-8.8,7.1-15.5,12.4-20.2c5.3-4.7,11.4-7.8,18.5-9.3
		c7.1-1.5,15.2-2.2,24.2-2.2c0,0,33,0.6,36,0.6v176.5h-33.2v9.6h243.4v-9.6h-33.2V188.9c3,0,36-0.6,36-0.6c9,0,17,0.8,24.2,2.2
		c7.1,1.5,13.3,4.6,18.5,9.3c5.2,4.7,9.4,11.4,12.4,20.2c3,8.8,4.7,20.5,5.1,35.1h9V108.5h-9c0,17.6-1.6,31-4.8,40.2
		c-3.2,9.2-8.1,15.9-14.6,20.2c-6.6,4.3-14.7,6.7-24.4,7.3c-9.7,0.6-52.3,0.8-52.3,0.8V9.6h52.8c15,0,28.7,0.5,41.3,1.4
		c12.5,0.9,23.4,4.2,32.6,9.9c9.2,5.6,16.4,14.6,21.6,26.8c5.2,12.2,8.2,29.4,9,51.6H512L511.4,0z M279.4,365.4h-46.7V9.6h46.7
		V365.4z"/>
</g>
</svg>
