<?xml version="1.0" standalone="no"?>
<!DOCTYPE svg PUBLIC "-//W3C//DTD SVG 20010904//EN"
 "http://www.w3.org/TR/2001/REC-SVG-20010904/DTD/svg10.dtd">
<svg version="1.0" xmlns="http://www.w3.org/2000/svg"
 width="700.000000pt" height="700.000000pt" viewBox="0 0 700.000000 700.000000"
 preserveAspectRatio="xMidYMid meet">
<metadata>
Created by potrace 1.14, written by Peter Selinger 2001-2017
</metadata>
<g transform="translate(0.000000,700.000000) scale(0.100000,-0.100000)"
fill="#000000" stroke="none">
<path d="M4695 5140 c-4 -12 -43 -97 -86 -187 -43 -91 -79 -166 -79 -168 0 -2
-31 -69 -70 -150 -38 -81 -70 -148 -70 -150 0 -1 -31 -69 -70 -149 -38 -81
-70 -149 -70 -151 0 -2 -26 -59 -59 -127 -125 -262 -171 -360 -171 -363 0 -2
-31 -68 -69 -147 -37 -78 -78 -165 -91 -193 -12 -27 -43 -93 -67 -145 -25 -52
-74 -156 -108 -230 -35 -74 -84 -180 -110 -235 -74 -156 -264 -562 -302 -645
-19 -41 -54 -115 -78 -165 -23 -49 -39 -92 -35 -95 11 -7 3089 -5 3095 2 3 3
-13 45 -36 94 -59 127 -111 236 -156 334 -22 47 -72 153 -111 235 -38 83 -89
191 -112 240 -23 50 -74 158 -112 240 -39 83 -89 188 -110 235 -22 47 -55 117
-73 155 -18 39 -54 115 -80 170 -26 55 -60 127 -75 160 -33 71 -69 148 -180
385 -45 96 -98 209 -117 250 -19 41 -87 185 -150 320 -63 135 -138 295 -166
355 -28 61 -56 118 -63 128 -11 18 -12 18 -19 -3z m368 -1200 c44 -91 109
-226 144 -300 36 -74 87 -180 113 -235 26 -55 78 -163 115 -240 37 -77 89
-185 115 -240 26 -55 80 -167 120 -250 150 -310 204 -423 261 -542 l58 -123
-1060 0 c-582 0 -1059 2 -1059 5 0 5 77 176 168 375 16 36 39 88 52 115 22 50
61 134 116 250 15 33 28 62 29 65 0 3 10 25 22 50 11 25 57 126 103 225 45 99
102 222 126 274 24 51 44 95 44 96 0 2 16 39 36 82 20 43 69 150 109 238 73
160 106 231 185 400 l42 90 41 -85 c22 -47 76 -159 120 -250z"/>
<path d="M739 5095 c-6 0 -2 -3185 3 -3186 5 0 22 -1 38 -1 17 0 53 1 80 1
l50 1 0 594 0 593 890 0 c490 0 894 3 898 7 12 12 9 796 -3 797 -5 0 -409 1
-897 1 l-888 1 0 507 c0 398 3 509 13 512 6 2 510 3 1120 3 l1107 -1 0 83 c0
59 -4 83 -12 84 -9 0 -2203 4 -2399 4z"/>
</g>
</svg>
