<?xml version="1.0" standalone="no"?>
<!DOCTYPE svg PUBLIC "-//W3C//DTD SVG 20010904//EN"
 "http://www.w3.org/TR/2001/REC-SVG-20010904/DTD/svg10.dtd">
<svg version="1.0" xmlns="http://www.w3.org/2000/svg"
 width="1024.000000pt" height="1024.000000pt" viewBox="0 0 1024.000000 1024.000000"
 preserveAspectRatio="xMidYMid meet">
<metadata>
Created by potrace 1.11, written by Peter Selinger 2001-2013
</metadata>
<g transform="translate(0.000000,1024.000000) scale(0.100000,-0.100000)"
fill="#000000" stroke="none">
<path d="M10 8543 c0 -181 -3 -628 -7 -995 l-6 -668 100 0 101 0 6 88 c44 608
122 912 308 1187 199 294 509 454 958 495 218 19 675 30 1276 30 l604 0 0
-1675 0 -1675 -272 1 c-478 1 -851 15 -953 37 -195 42 -345 124 -446 245 -159
189 -232 452 -247 897 l-7 185 -87 3 -88 3 0 -1471 0 -1471 88 3 87 3 7 125
c35 633 227 995 597 1130 188 69 364 83 899 74 l422 -7 0 -1763 0 -1764 -330
0 -330 0 0 -95 0 -95 2430 0 2430 0 0 95 0 95 -330 0 -330 0 0 1763 0 1764
143 6 c78 4 282 7 452 7 459 0 616 -22 804 -112 90 -43 116 -61 191 -136 202
-201 303 -496 327 -952 l6 -130 89 0 88 0 0 1465 0 1465 -88 0 -89 0 -6 -192
c-22 -717 -221 -1040 -701 -1139 -83 -17 -159 -22 -436 -29 -184 -5 -435 -9
-557 -10 l-223 0 0 1676 0 1676 783 -5 c787 -5 1032 -14 1230 -42 281 -41 520
-150 687 -315 235 -232 362 -554 420 -1063 11 -94 20 -194 20 -222 0 -27 3
-74 6 -102 l7 -53 100 0 100 0 -6 662 c-4 364 -7 811 -7 995 l0 333 -5110 0
-5110 0 0 -327z m5580 -3423 l0 -3560 -467 2 -468 3 -3 3545 c-1 1950 0 3551
3 3558 3 9 107 12 470 12 l465 0 0 -3560z"/>
</g>
</svg>
